<?xml version="1.0" encoding="utf-8"?>
<!-- Generator: Adobe Illustrator 22.1.0, SVG Export Plug-In . SVG Version: 6.00 Build 0)  -->
<svg version="1.1" id="Layer_1" xmlns="http://www.w3.org/2000/svg" xmlns:xlink="http://www.w3.org/1999/xlink" x="0px" y="0px"
	 viewBox="0 0 200 200" style="enable-background:new 0 0 200 200;" xml:space="preserve">
<style type="text/css">
	.st0{fill:#FFFFFF;}
</style>
<g>
	<path class="st0" d="M131.5,85.4c6.6,1.3,11.3,4,14,8.4c2.7,4.3,4.1,11.2,4.1,20.5c0,18.5-5.6,33.7-16.7,45.5
		c-11.1,11.8-25.4,17.7-42.7,17.7c-6.8,0-13.5-1.2-19.9-3.7c-6.4-2.5-12-5.9-16.6-10.3c-5.3-4.8-9.3-10-11.9-15.4
		c-2.6-5.4-4-10.9-4-16.6c0-6.3,1.4-11.2,4.1-14.7c2.7-3.5,7-5.8,12.9-7.1c-1.1-2.6-1.9-4.7-2.4-6.5c-0.5-1.8-0.8-3.1-0.8-4.1
		c0-3.3,1.7-6.7,5.2-10.1c3.5-3.5,6.8-5.2,9.9-5.2c1.3,0,2.7,0.2,4.2,0.7c1.5,0.5,3.2,1.3,5.1,2.4c-5.7-16-9.8-28.4-12.3-37.1
		c-2.6-8.7-3.9-14.7-3.9-18c0-4.6,1.2-8.2,3.5-10.9c2.4-2.7,5.5-4,9.6-4c6.9,0,15.6,15.4,26.2,46.3c1.8,5.3,3.2,9.4,4.2,12.2
		c0.8-2.3,1.9-5.5,3.4-9.7c10.6-30.6,19.7-45.8,27.3-45.8c3.7,0,6.7,1.3,9,3.8c2.2,2.5,3.4,5.9,3.4,10.2c0,3.2-1.2,9.1-3.7,17.7
		C140.2,60.3,136.5,71.5,131.5,85.4z M52.6,130.3c1,1.3,2.5,3.1,4.3,5.5c4.8,6.7,9.3,10,13.4,10c1.4,0,2.6-0.4,3.7-1.3
		c1.1-0.9,1.7-1.8,1.7-2.8c0-1.1-0.7-2.9-2.2-5.5c-1.5-2.6-3.5-5.5-6.1-8.7c-2.9-3.7-5.4-6.5-7.3-8.2c-1.9-1.7-3.5-2.6-4.7-2.6
		c-2.6,0-4.9,1.4-7.1,4.1c-2.2,2.8-3.3,6-3.3,9.8c0,3,0.8,6.4,2.3,10.1c1.5,3.7,3.7,7.4,6.6,11.2c4.3,5.8,9.7,10.3,16.1,13.4
		c6.4,3.1,13.5,4.7,21.3,4.7c14.3,0,26.3-5.3,36-16c9.7-10.7,14.5-24.1,14.5-40.2c0-4.9-0.4-8.8-1.1-11.7c-0.7-2.9-1.9-5-3.6-6.3
		c-3-2.5-8.9-4.7-17.6-6.7c-8.7-2-17.8-3-27.3-3c-2.6,0-4.5,0.4-5.6,1.3c-1.1,0.9-1.7,2.4-1.7,4.5c0,5,2.8,8.6,8.4,10.9
		c5.6,2.2,14.6,3.4,27.1,3.4h4.5c1,0,1.9,0.4,2.5,1.2c0.6,0.8,1,1.9,1.3,3.5c-1.3,1.2-3.8,2.5-7.7,4c-3.9,1.5-6.9,3-8.9,4.5
		c-4.4,3.2-8,7.1-10.6,11.5c-2.7,4.4-4,8.6-4,12.6c0,2.4,0.6,5.3,1.7,8.8c1.1,3.4,1.7,5.5,1.7,6.3v0.8l-0.2,1
		c-3.2-0.2-5.8-2.1-7.7-5.7c-1.9-3.6-2.8-8.3-2.8-14.3v-1c-0.6,0.5-1.2,0.9-1.7,1.1c-0.6,0.2-1.2,0.3-1.8,0.3
		c-0.7,0-1.3-0.1-1.9-0.2c-0.6-0.1-1.3-0.3-2-0.5c0.2,0.8,0.4,1.6,0.5,2.4c0.1,0.8,0.2,1.4,0.2,1.8c0,2.7-1.1,5.1-3.2,7
		c-2.1,1.9-4.7,2.9-7.6,2.9c-4.6,0-9.3-2.3-14.1-6.8c-4.8-4.5-7.2-8.9-7.2-13.3c0-0.8,0.1-1.5,0.3-2.1
		C51.8,131.3,52.1,130.8,52.6,130.3z M85.6,133c1.2,0,2.4-0.6,3.4-1.7c1-1.1,1.5-2.4,1.5-3.7c0-1.4-1-4.6-3-9.8
		c-2-5.1-4.5-10.1-7.5-15c-2.2-3.7-4.4-6.4-6.5-8.3c-2.1-1.9-4.2-2.8-6.1-2.8c-1.5,0-3.3,1-5.1,2.9c-1.9,1.9-2.8,3.8-2.8,5.5
		c0,1.8,0.9,4.4,2.8,7.9c1.8,3.5,4.3,7.3,7.4,11.2c3.2,4.3,6.3,7.7,9.1,10.1C81.7,131.8,83.9,133,85.6,133z M96.4,79.8L84.5,45.4
		c-3.1-8.7-5.5-14.5-7.2-17.1c-1.7-2.7-3.5-4-5.5-4c-1.5,0-2.8,0.6-3.7,1.8c-1,1.2-1.4,2.8-1.4,4.7c0,3.4,1.3,9.3,3.9,17.6
		c2.6,8.4,6.4,19.4,11.6,32.9c0.4-0.8,1.1-1.4,1.9-1.7c0.8-0.3,1.9-0.5,3.3-0.5c0.4,0,1.3,0,2.6,0.1C91.2,79.3,93.4,79.5,96.4,79.8z
		 M108.9,113.2c-3.2-0.1-6.2-0.5-9-1c-2.8-0.5-5.5-1.2-8.1-2.2c1.2,2.4,2.2,4.7,3.1,7.1c0.9,2.4,1.7,4.7,2.3,6.9
		c1.8-2.2,3.6-4.2,5.6-6C104.7,116.2,106.7,114.6,108.9,113.2z M123.5,83.5c4.9-13.4,8.8-24.4,11.5-33.1c2.8-8.7,4.1-14,4.1-16
		c0-2.1-0.5-3.8-1.4-5c-0.9-1.2-2.2-1.8-3.8-1.8c-2.1,0-4.2,1.7-6.3,5.1c-2.1,3.4-4.5,8.9-7.1,16.5l-11,31.8L123.5,83.5z"/>
</g>
</svg>
