<?xml version="1.0" encoding="utf-8"?>
<!-- Generator: Adobe Illustrator 22.1.0, SVG Export Plug-In . SVG Version: 6.00 Build 0)  -->
<svg version="1.1" id="Layer_1" xmlns="http://www.w3.org/2000/svg" xmlns:xlink="http://www.w3.org/1999/xlink" x="0px" y="0px"
	 viewBox="0 0 200 200" style="enable-background:new 0 0 200 200;" xml:space="preserve">
<style type="text/css">
	.st0{fill:none;stroke:#FFFFFF;stroke-width:9;stroke-miterlimit:10;}
</style>
<path class="st0" d="M121,134.5c0,0,13.6-7.8,17.2-9.7c3.6-1.9,7.2-2.4,9.5-1c3.4,2.1,31.8,21,34.2,22.7c2.4,1.7,3.5,6.5,0.3,11.2
	c-3.3,4.7-18.4,23.3-24.8,23.1c-6.4-0.2-33.1-0.8-83.5-51.2C23.5,79.2,22.9,52.5,22.7,46.1c-0.2-6.4,18.4-21.6,23.1-24.8
	c4.7-3.3,9.5-2,11.2,0.3c1.9,2.6,20.6,31,22.7,34.2c1.4,2.2,0.9,5.9-1,9.5C76.7,68.8,69,82.4,69,82.4s5.5,9.4,24.1,28
	C111.6,129,121,134.5,121,134.5z"/>
</svg>
