<?xml version="1.0" encoding="utf-8"?>
<!-- Generator: Adobe Illustrator 22.1.0, SVG Export Plug-In . SVG Version: 6.00 Build 0)  -->
<svg version="1.1" id="Layer_1" xmlns="http://www.w3.org/2000/svg" xmlns:xlink="http://www.w3.org/1999/xlink" x="0px" y="0px"
	 viewBox="0 0 200 200" style="enable-background:new 0 0 200 200;" xml:space="preserve">
<style type="text/css">
	.st0{fill:#FFFFFF;}
</style>
<path class="st0" d="M177.6,39.2H17c-2.1,0-3.9,1.7-3.9,3.9v116.6c0,2.1,1.7,3.9,3.9,3.9h160.6c2.1,0,3.9-1.7,3.9-3.9V43.1
	C181.5,41,179.7,39.2,177.6,39.2z M97.3,104.6L27.8,47h139.1L97.3,104.6z M77,97.8l-56.1,52.9V51.4L77,97.8z M83,102.8l11.8,9.8
	c0.7,0.6,1.6,0.9,2.5,0.9c0.9,0,1.8-0.3,2.5-0.9l11.8-9.8l56.2,53H26.8L83,102.8z M117.6,97.8l56.1-46.5v99.4L117.6,97.8z"/>
</svg>
