<?xml version="1.0" encoding="utf-8"?>
<!-- Generator: Adobe Illustrator 22.1.0, SVG Export Plug-In . SVG Version: 6.00 Build 0)  -->
<svg version="1.1" id="Layer_1" xmlns="http://www.w3.org/2000/svg" xmlns:xlink="http://www.w3.org/1999/xlink" x="0px" y="0px"
	 viewBox="0 0 200 200" style="enable-background:new 0 0 200 200;" xml:space="preserve">
<style type="text/css">
	.st0{fill:none;stroke:#FFFFFF;stroke-width:7;stroke-linejoin:round;stroke-miterlimit:10;}
</style>
<path class="st0" d="M43.3,153H67V82H43.3V153z M68.5,60.1c-0.1-3.6-1.3-6.5-3.7-8.8c-2.4-2.3-5.6-3.5-9.5-3.5s-7.2,1.2-9.7,3.5
	s-3.7,5.3-3.7,8.8c0,3.5,1.2,6.4,3.6,8.8c2.4,2.4,5.6,3.5,9.5,3.5h0.1c4,0,7.3-1.2,9.7-3.5C67.3,66.5,68.5,63.5,68.5,60.1z
	 M128.4,153h23.7v-40.8c0-10.5-2.5-18.5-7.5-23.9c-5-5.4-11.6-8.1-19.8-8.1c-9.3,0-16.4,4-21.4,12h0.2V82H80
	c0.2,4.5,0.2,28.2,0,71.1h23.7v-39.7c0-2.6,0.2-4.5,0.7-5.7c1-2.4,2.6-4.4,4.6-6.1c2-1.7,4.6-2.5,7.6-2.5c7.9,0,11.9,5.4,11.9,16.1
	V153z M176.3,50.8v98.3c0,8.1-2.9,15.1-8.7,20.8c-5.8,5.8-12.7,8.7-20.8,8.7H48.5c-8.1,0-15.1-2.9-20.8-8.7
	c-5.8-5.8-8.7-12.7-8.7-20.8V50.8c0-8.1,2.9-15.1,8.7-20.8s12.7-8.7,20.8-8.7h98.3c8.1,0,15.1,2.9,20.8,8.7
	C173.5,35.8,176.3,42.7,176.3,50.8z"/>
</svg>
